<svg xmlns="http://www.w3.org/2000/svg" width="1400" height="76" viewBox="0 0 1400 76" fill="none">
    <path
        d="M-1248.72 -31.7966C-1190.38 70.5871 -1060.07 106.314 -957.639 48.0098C-937.823 36.7211 -919.951 22.3725 -904.686 5.41879C-825.835 92.9164 -690.929 99.946 -603.391 21.132C-597.889 16.1699 -592.635 10.9184 -587.671 5.41879C-508.738 92.9164 -373.749 99.9046 -286.169 20.9666C-280.709 16.0459 -275.537 10.8357 -270.614 5.41879C-191.764 92.9164 -56.8578 99.946 30.6802 21.132C36.1824 16.1699 41.4364 10.9184 46.4008 5.41879C125.251 92.9164 260.157 99.946 347.695 21.132C353.197 16.1699 358.451 10.9184 363.416 5.41879C442.266 92.9164 577.172 99.946 664.71 21.132C670.213 16.1699 675.467 10.9184 680.431 5.41879C759.281 92.9164 894.188 99.946 981.725 21.132C987.228 16.1699 992.481 10.9184 997.446 5.41879C1076.3 92.9164 1211.2 99.946 1298.74 21.132C1304.24 16.1699 1309.5 10.9184 1314.46 5.41879C1393.39 92.9164 1528.38 99.9046 1615.96 20.9666C1621.42 16.0459 1626.59 10.8357 1631.52 5.41879C1710.37 92.9164 1845.27 99.946 1932.81 21.132C1938.31 16.1699 1943.57 10.9184 1948.53 5.41879C2027.38 92.9164 2162.29 99.946 2249.83 21.132C2255.33 16.1699 2260.58 10.9184 2265.55 5.41879C2344.32 92.9164 2479.14 99.9873 2566.68 21.256C2608.38 -16.2488 2633.61 -68.6812 2636.88 -124.628C2639.07 -161.72 2610.78 -193.56 2573.67 -195.793C2562.21 -196.454 2550.75 -194.221 2540.45 -189.218L2504.46 -171.768C2497.88 -168.749 2492.29 -163.911 2488.36 -157.791C2486.01 -153.822 2484.35 -149.48 2483.44 -144.973C2482.61 -139.556 2482.16 -134.098 2482.03 -128.639C2480.83 -102.382 2466.56 -78.4399 2444.02 -64.877C2407.73 -41.9275 2367.85 -26.2143 2324.91 -32.1274C2315.27 -33.4093 2305.8 -35.9317 2296.78 -39.6118C2310.35 -66.0348 2318.29 -94.9801 2320.07 -124.628C2322.31 -161.72 2294.01 -193.601 2256.9 -195.793C2245.4 -196.496 2233.94 -194.221 2223.6 -189.218C2207.88 -181.651 2194.27 -175.035 2187.57 -171.768C2180.91 -168.791 2175.28 -163.911 2171.31 -157.791C2168.91 -153.822 2167.25 -149.521 2166.38 -144.973C2165.56 -139.556 2165.1 -134.098 2164.98 -128.639C2163.82 -102.34 2149.51 -78.3986 2126.92 -64.877C2090.68 -41.9275 2050.8 -26.2143 2007.86 -32.1274C1998.22 -33.4093 1988.74 -35.9317 1979.73 -39.6118C1993.29 -66.0348 2001.24 -94.9801 2003.02 -124.628C2005.25 -161.761 1976.91 -193.642 1939.8 -195.834C1928.3 -196.537 1916.8 -194.221 1906.42 -189.218C1890.7 -181.651 1877.09 -175.035 1870.39 -171.768C1863.72 -168.791 1858.1 -163.911 1854.13 -157.791C1851.73 -153.822 1850.07 -149.521 1849.2 -144.973C1848.38 -139.556 1847.92 -134.098 1847.76 -128.639C1846.68 -102.382 1832.45 -78.3986 1809.9 -64.877C1773.66 -41.9275 1733.78 -26.2143 1690.84 -32.1274C1681.2 -33.4093 1671.73 -35.9317 1662.71 -39.6118C1676.2 -66.0348 1684.06 -94.9801 1685.79 -124.628C1687.95 -161.761 1659.61 -193.601 1622.5 -195.751C1611.08 -196.413 1599.66 -194.18 1589.36 -189.218L1553.41 -171.768C1546.75 -168.791 1541.12 -163.911 1537.15 -157.791C1534.75 -153.822 1533.1 -149.521 1532.23 -144.973C1531.4 -139.556 1530.91 -134.098 1530.78 -128.639C1529.67 -102.34 1515.35 -78.3572 1492.76 -64.877C1456.48 -41.9275 1416.6 -26.2143 1373.7 -32.1274C1364.06 -33.4093 1354.59 -35.9317 1345.57 -39.6118C1359.14 -66.0348 1367.04 -94.9801 1368.86 -124.628C1371.05 -161.761 1342.72 -193.601 1305.61 -195.793C1294.15 -196.454 1282.69 -194.221 1272.35 -189.218L1236.36 -171.768C1229.69 -168.791 1224.07 -163.911 1220.1 -157.791C1217.7 -153.863 1216.04 -149.521 1215.13 -144.973C1214.31 -139.556 1213.85 -134.098 1213.73 -128.639C1212.57 -102.34 1198.3 -78.3986 1175.71 -64.877C1139.43 -41.9275 1099.55 -26.2143 1056.6 -32.1274C1046.97 -33.4093 1037.53 -35.9317 1028.51 -39.6118C1042.08 -66.0348 1049.99 -94.9801 1051.76 -124.628C1053.96 -161.72 1025.66 -193.56 988.552 -195.793C977.092 -196.454 965.633 -194.221 955.332 -189.218L919.34 -171.768C912.679 -168.749 907.012 -163.911 903.041 -157.791C900.682 -153.822 899.028 -149.48 898.117 -144.973C897.29 -139.556 896.835 -134.098 896.711 -128.639C895.511 -102.382 881.239 -78.4399 858.692 -64.877C822.411 -41.9275 782.531 -26.2143 739.589 -32.1274C729.95 -33.4093 720.518 -35.9317 711.499 -39.6118C725.069 -66.0348 732.97 -94.9801 734.749 -124.628C736.942 -161.72 708.645 -193.56 671.536 -195.793C660.077 -196.454 648.618 -194.221 638.317 -189.218L602.325 -171.768C595.665 -168.791 589.997 -163.911 586.026 -157.791C583.709 -153.822 582.095 -149.48 581.227 -144.973C580.399 -139.556 579.944 -134.098 579.82 -128.639C578.662 -102.34 564.348 -78.3986 541.76 -64.877C505.52 -41.9275 465.64 -26.2143 422.698 -32.1274C413.059 -33.4093 403.586 -35.9317 394.567 -39.6118C408.136 -66.0348 416.079 -94.9801 417.858 -124.628C420.092 -161.72 391.837 -193.601 354.728 -195.834C343.186 -196.537 331.685 -194.263 321.302 -189.218C305.581 -181.651 291.97 -175.035 285.269 -171.768C278.608 -168.791 272.982 -163.911 269.01 -157.791C266.611 -153.822 264.956 -149.521 264.087 -144.973C263.26 -139.556 262.805 -134.098 262.681 -128.639C261.522 -102.34 247.209 -78.3986 224.621 -64.877C188.381 -41.9275 148.501 -26.2143 105.559 -32.1274C95.92 -33.4093 86.4464 -35.9317 77.4279 -39.6118C90.9971 -66.0348 98.9401 -94.9801 100.719 -124.628C102.87 -161.761 74.532 -193.601 37.4235 -195.751C26.0055 -196.413 14.5875 -194.18 4.2865 -189.218C-11.434 -181.651 -25.0446 -175.035 -31.7465 -171.768C-38.407 -168.791 -44.0332 -163.911 -48.0046 -157.791C-50.4042 -153.822 -52.059 -149.521 -52.9277 -144.973C-53.7551 -139.556 -54.2102 -134.098 -54.3756 -128.639C-55.4927 -102.34 -69.8065 -78.3572 -92.3943 -64.877C-128.634 -41.9275 -168.514 -26.2143 -211.456 -32.1274C-221.095 -33.4093 -230.569 -35.9317 -239.587 -39.6118C-226.018 -66.0348 -218.075 -94.9801 -216.296 -124.628C-214.104 -161.761 -242.442 -193.601 -279.592 -195.793C-291.051 -196.454 -302.469 -194.221 -312.77 -189.218L-348.762 -171.768C-355.422 -168.791 -361.048 -163.911 -365.02 -157.791C-367.419 -153.822 -369.074 -149.521 -369.943 -144.973C-370.77 -139.556 -371.267 -134.098 -371.391 -128.639C-372.508 -102.34 -386.822 -78.3572 -409.409 -64.877C-445.69 -41.9275 -485.571 -26.2143 -528.471 -32.1274C-538.11 -33.4093 -547.584 -35.9317 -556.602 -39.6118C-543.033 -66.0348 -535.131 -94.9801 -533.311 -124.628C-531.119 -161.761 -559.457 -193.601 -596.607 -195.793C-608.066 -196.454 -619.484 -194.221 -629.785 -189.218L-665.777 -171.768C-672.437 -168.749 -678.105 -163.911 -682.076 -157.791C-684.434 -153.822 -686.089 -149.48 -686.999 -144.973C-687.827 -139.556 -688.282 -134.098 -688.406 -128.639C-689.564 -102.34 -703.837 -78.3986 -726.424 -64.877C-762.705 -41.9275 -802.586 -26.2143 -845.527 -32.1274C-855.167 -33.4093 -864.599 -35.9317 -873.617 -39.6118C-860.007 -66.0348 -851.981 -94.9801 -850.161 -124.628C-847.927 -161.72 -876.141 -193.601 -913.249 -195.875C-924.833 -196.578 -936.375 -194.304 -946.8 -189.218L-982.792 -171.768C-989.452 -168.749 -995.12 -163.911 -999.091 -157.791C-1001.45 -153.822 -1003.1 -149.48 -1004.01 -144.973C-1004.84 -139.556 -1005.3 -134.098 -1005.42 -128.639C-1006.62 -102.382 -1020.89 -78.4399 -1043.44 -64.877C-1079.72 -41.9275 -1119.6 -26.2143 -1162.54 -32.1274C-1247.97 -43.8709 -1265.1 -136 -1272.75 -132.526C-1276.14 -130.955 -1276.89 -123.595 -1274.94 -110.445C-1271.47 -82.7817 -1262.53 -56.028 -1248.72 -31.7966Z"
        fill="#D5CEFE" fill-opacity="0.15" />
</svg>