<svg width="208" height="333" viewBox="0 0 208 333" fill="none" xmlns="http://www.w3.org/2000/svg">
<path d="M195.874 0C202.501 8.52168e-06 207.874 5.37259 207.874 12V320.599C207.874 327.226 202.501 332.599 195.874 332.599H12C5.37265 332.599 0.000115177 327.226 0 320.599V12C0 5.37258 5.37258 2.75198e-07 12 0H195.874ZM28 16C21.3726 16 16 21.3726 16 28V304.6C16 311.227 21.3726 316.6 28 316.6H179.87C186.497 316.6 191.87 311.227 191.87 304.6V28C191.87 21.3726 186.497 16.0001 179.87 16H28Z" fill="white"/>
<rect x="16" y="16" width="175.87" height="300.6" rx="12" fill="white" fill-opacity="0.2"/>
<path d="M91 147.5L80.5 196.5L96 159.5L91 147.5Z" fill="white" fill-opacity="0.3"/>
<path d="M117 185L127.5 136L112 173L117 185Z" fill="white" fill-opacity="0.3"/>
<path d="M122.913 196.657H100.561L89.9582 152.812L80.597 196.657H72L84.8955 136H107.725L117.755 180.418L127.212 136H136L122.913 196.657Z" fill="white"/>
</svg>
