<svg viewBox="0 0 150 156" fill="none" xmlns="http://www.w3.org/2000/svg">
    <path
        d="M99 144C100.657 144 102 145.343 102 147V153C102 154.657 100.657 156 99 156H73C71.3431 156 70 154.657 70 153V147C70 145.343 71.3431 144 73 144H99ZM125 18C138.807 18 150 29.1929 150 43V113C150 126.807 138.807 138 125 138H25C11.1929 138 0 126.807 0 113V43C0 29.1929 11.1929 18 25 18H125ZM52 46C48.6863 46 46 48.6863 46 52V104C46 107.314 48.6863 110 52 110H64C67.3137 110 70 107.314 70 104V52C70 48.6863 67.3137 46 64 46H52ZM108 46C104.686 46 102 48.6863 102 52V104C102 107.314 104.686 110 108 110H120C123.314 110 126 107.314 126 104V52C126 48.6863 123.314 46 120 46H108ZM55 0C56.6569 0 58 1.34315 58 3V9C58 10.6569 56.6569 12 55 12H49C47.3431 12 46 10.6569 46 9V3C46 1.34315 47.3431 0 49 0H55ZM123 0C124.657 0 126 1.34315 126 3V9C126 10.6569 124.657 12 123 12H117C115.343 12 114 10.6569 114 9V3C114 1.34315 115.343 0 117 0H123Z"
        fill="white"></path>
</svg>